<svg xmlns="http://www.w3.org/2000/svg" width="512" height="512"><path fill="#050c1a" d="M0 0h512v512H0z"/><g transform="matrix(6 0 0 6 76 20)" stroke="#6af0b0"><path d="M30 28c-8-8-26-12-28-2-2 8 12 12 28 10" stroke-width="1.4" stroke-linecap="round" stroke-linejoin="round" fill="none"/><path d="M30 32c-10-4-22-6-24-2m24 0c-12-6-20-10-22-8" stroke-width=".7" stroke-linecap="round" opacity=".5"/><path d="M30 28c8-8 26-12 28-2 2 8-12 12-28 10" stroke-width="1.4" stroke-linecap="round" stroke-linejoin="round" fill="none"/><path d="M30 32c10-4 22-6 24-2m-24 0c12-6 20-10 22-8" stroke-width=".7" stroke-linecap="round" opacity=".5"/><path d="M30 34c-6-2-14 0-12 6 2 4 10 2 12 0m0-6c6-2 14 0 12 6-2 4-10 2-12 0" stroke-linecap="round" fill="none" opacity=".6"/><path d="M30 20v40" stroke-width="2.2" stroke-linecap="round"/><path stroke-width=".8" opacity=".4" d="M28 28h4m-4.5 5h5m-5 5h5M28 43h4m-4 5h4m-3.5 5h3"/><ellipse cx="30" cy="18" rx="4" ry="3.5" stroke-width="1.4" fill="none"/><path d="M28 15c-2-5-5-9-7-12m11 12c2-5 5-9 7-12M29 60c-2 6-5 12-9 20" stroke-linecap="round" opacity=".7"/><path d="M30 60v22" stroke-width="1.1" stroke-linecap="round" opacity=".8"/><path d="M31 60c2 6 5 12 9 20" stroke-linecap="round" opacity=".7"/></g></svg>